<svg width="4278" height="677" viewBox="0 0 4278 677" fill="none" xmlns="http://www.w3.org/2000/svg">
<path d="M0.770264 338.395C0.770264 337.355 0.770264 335.795 0.770264 333.715C0.770264 331.635 0.770264 329.295 0.770264 326.695C1.29028 324.094 1.55029 321.754 1.55029 319.674C1.55029 317.074 1.55029 315.514 1.55029 314.994C2.07031 313.434 3.89038 311.614 7.0105 309.534C10.6506 307.454 13.2507 306.674 14.8108 307.194C17.9309 308.234 20.791 311.874 23.3911 318.114C25.9912 324.354 28.5913 331.895 31.1914 340.735C33.7915 349.575 36.6516 359.456 39.7717 370.376C43.4119 380.777 47.832 390.657 53.0322 400.017C58.7524 408.858 65.5127 416.918 73.313 424.198C81.6333 430.958 91.5137 435.379 102.954 437.459C106.594 437.979 109.454 437.979 111.534 437.459C113.615 436.419 114.915 435.119 115.435 433.559C116.475 431.479 116.995 429.398 116.995 427.318C116.995 424.718 116.995 422.638 116.995 421.078C116.475 411.718 112.834 402.097 106.074 392.217C99.314 381.817 91.2537 370.896 81.8933 359.456C72.533 347.495 63.1726 335.015 53.8123 322.014C44.4519 308.494 36.6516 294.453 30.4114 279.893C24.1711 264.812 20.271 248.952 18.7109 232.311C17.1509 215.15 20.271 196.95 28.0713 177.709C28.0713 173.029 30.4114 166.789 35.0916 158.988C40.2917 151.188 46.272 143.908 53.0322 137.147C60.3125 129.867 67.8528 123.627 75.6531 118.427C83.4534 113.227 90.2136 110.626 95.9338 110.626C104.254 110.626 112.054 112.187 119.335 115.307C127.135 118.427 133.115 123.627 137.275 130.907C142.476 137.667 148.456 146.768 155.216 158.208C162.496 169.129 168.737 180.049 173.937 190.969C179.657 201.89 183.297 211.77 184.857 220.611C186.417 229.451 184.077 234.651 177.837 236.211C170.557 236.211 164.316 234.131 159.116 229.971C154.436 225.811 150.536 220.611 147.416 214.37C144.296 208.13 141.436 201.37 138.835 194.09C136.235 186.289 133.375 179.269 130.255 173.029C127.135 166.789 123.495 161.588 119.335 157.428C115.175 152.748 109.714 150.408 102.954 150.408C93.5938 150.408 85.2734 153.268 77.9932 158.988C71.2329 164.708 65.5127 171.729 60.8325 180.049C56.6724 188.369 53.5522 197.47 51.4722 207.35C49.9121 216.71 49.1321 225.031 49.1321 232.311C49.1321 245.312 51.4722 257.532 56.1523 268.972C61.3525 279.893 67.5928 290.553 74.873 300.954C82.6733 310.834 90.9937 320.714 99.834 330.595C109.194 340.475 117.515 350.615 124.795 361.016C132.595 370.896 139.095 381.297 144.296 392.217C149.496 403.137 152.096 414.838 152.096 427.318C152.096 432.519 150.796 437.719 148.196 442.919C146.116 447.599 142.996 452.279 138.835 456.959C135.195 461.12 130.775 464.5 125.575 467.1C120.375 469.7 115.175 471 109.974 471C95.4138 471 81.6333 466.58 68.6328 457.74C55.6323 448.899 43.9319 437.719 33.5315 424.198C23.6511 410.678 15.5908 396.377 9.35059 381.297C3.63037 365.696 0.770264 351.396 0.770264 338.395ZM382.205 375.836C374.404 385.197 365.304 395.077 354.904 405.478C345.023 415.878 334.103 425.498 322.142 434.339C310.702 443.179 298.481 450.719 285.481 456.959C273 462.68 260 465.54 246.479 465.54C218.918 465.54 205.138 452.279 205.138 425.758C205.138 414.838 209.558 400.537 218.398 382.857C227.759 364.656 239.719 345.675 254.28 325.915C268.84 306.154 284.961 287.173 302.642 268.972C320.322 250.252 338.003 234.911 355.684 222.951C373.364 210.47 389.485 202.67 404.045 199.55C419.126 196.43 431.346 200.85 440.707 212.81C440.707 226.851 439.667 240.891 437.587 254.932C435.507 268.972 433.427 283.013 431.346 297.053C429.266 310.574 427.186 324.094 425.106 337.615C423.026 351.135 421.986 364.916 421.986 378.957C421.986 382.077 422.246 387.017 422.766 393.777C423.806 400.017 425.106 406.518 426.666 413.278C428.746 419.518 431.346 425.238 434.467 430.438C437.587 435.119 441.747 437.459 446.947 437.459C459.427 437.459 469.568 435.899 477.368 432.779C485.688 429.658 492.709 426.018 498.429 421.858C504.669 417.178 509.869 411.978 514.03 406.258C518.71 400.537 523.39 394.817 528.07 389.097C533.27 383.377 538.99 377.917 545.231 372.716C551.471 367.516 559.531 363.356 569.412 360.236C569.412 360.236 569.412 361.016 569.412 362.576C569.412 364.136 569.412 365.436 569.412 366.476C569.412 379.477 565.511 392.477 557.711 405.478C549.911 417.958 540.031 429.138 528.07 439.019C516.11 448.899 502.589 456.959 487.509 463.2C472.948 468.92 458.647 471.78 444.607 471.78C432.646 471.78 423.026 468.4 415.746 461.64C408.466 454.879 402.485 446.819 397.805 437.459C393.645 428.098 390.525 417.958 388.445 407.038C386.365 395.597 384.285 385.197 382.205 375.836ZM396.245 273.653C401.445 256.492 403.265 244.792 401.705 238.551C400.665 232.311 397.025 229.971 390.785 231.531C384.545 232.571 376.484 236.991 366.604 244.792C356.724 252.072 346.063 261.172 334.623 272.093C323.182 282.493 311.742 294.193 300.302 307.194C288.861 320.194 278.201 332.675 268.32 344.635C258.44 356.076 250.38 366.476 244.139 375.836C237.899 385.197 233.999 391.957 232.439 396.117C229.319 408.078 228.799 417.178 230.879 423.418C233.479 429.658 237.119 434.079 241.799 436.679C247 438.759 252.46 439.019 258.18 437.459C264.42 435.899 269.62 433.559 273.781 430.438C282.621 422.638 293.801 412.238 307.322 399.237C320.842 385.717 333.843 371.416 346.323 356.336C359.324 341.255 370.504 326.435 379.865 311.874C389.225 296.793 394.685 284.053 396.245 273.653ZM644.294 444.479C639.094 433.039 632.074 418.218 623.234 400.017C614.913 381.297 606.333 362.316 597.493 343.075C588.652 323.314 580.332 304.854 572.532 287.693C565.251 270.012 559.531 256.232 555.371 246.352C555.891 244.271 557.711 241.671 560.831 238.551C564.471 234.911 567.332 232.831 569.412 232.311C575.132 231.271 581.112 234.911 587.352 243.231C593.593 251.032 599.833 261.692 606.073 275.213C612.313 288.213 618.813 302.774 625.574 318.894C632.334 334.495 638.574 349.315 644.294 363.356C650.535 376.876 656.255 388.317 661.455 397.677C666.655 406.518 671.075 410.938 674.716 410.938C675.236 410.938 675.756 410.938 676.276 410.938C676.796 410.418 677.576 410.158 678.616 410.158C678.616 408.598 679.396 406.258 680.956 403.137C682.516 399.497 683.816 395.857 684.856 392.217C686.416 388.577 687.716 385.197 688.756 382.077C690.316 378.957 691.356 376.876 691.876 375.836C692.396 374.796 693.956 371.676 696.556 366.476C699.677 360.756 702.797 354.776 705.917 348.535C709.037 342.295 711.897 336.575 714.497 331.375C717.097 325.655 718.657 322.274 719.177 321.234C720.217 319.154 721.777 314.734 723.857 307.974C726.458 301.214 729.318 293.413 732.438 284.573C736.078 275.733 739.718 266.372 743.358 256.492C746.998 246.612 750.378 237.251 753.499 228.411C756.619 219.571 759.219 212.03 761.299 205.79C763.899 199.03 765.719 194.35 766.759 191.75C770.399 175.109 775.859 161.588 783.14 151.188C790.94 140.268 797.44 133.767 802.64 131.687C808.361 129.087 811.221 131.427 811.221 138.708C811.741 145.988 806.021 158.988 794.06 177.709C793.02 181.869 790.68 188.889 787.04 198.77C783.92 208.13 780.54 218.271 776.899 229.191C773.259 240.111 769.619 250.512 765.979 260.392C762.859 269.752 760.779 276.513 759.739 280.673C757.659 286.913 754.799 296.013 751.158 307.974C748.038 319.414 744.138 332.415 739.458 346.975C735.298 361.016 730.618 375.316 725.417 389.877C720.217 404.438 714.497 417.958 708.257 430.438C702.537 442.399 696.556 452.279 690.316 460.08C684.076 467.88 677.836 471.78 671.595 471.78C668.475 471.78 665.355 470.74 662.235 468.66C659.635 466.58 657.035 464.24 654.435 461.64C652.355 459.04 650.275 456.179 648.195 453.059C646.635 449.419 645.334 446.559 644.294 444.479ZM848.662 373.496C845.022 375.576 842.162 376.096 840.082 375.056C838.002 374.016 836.442 372.456 835.402 370.376C834.882 368.296 834.362 365.956 833.842 363.356C833.842 360.236 833.842 358.156 833.842 357.116C833.842 346.715 835.142 340.475 837.742 338.395C840.342 335.795 843.722 334.235 847.882 333.715C852.042 332.675 856.462 331.375 861.143 329.815C865.823 328.255 870.243 323.314 874.403 314.994C880.643 301.994 886.104 288.473 890.784 274.433C895.984 259.872 902.224 246.352 909.504 233.871C916.785 221.391 925.885 211.25 936.805 203.45C948.246 195.65 963.846 191.75 983.607 191.75C986.727 191.75 990.107 192.01 993.748 192.53C997.908 193.05 1001.55 194.09 1004.67 195.65C1008.31 196.69 1011.17 198.77 1013.25 201.89C1015.85 204.49 1017.15 208.13 1017.15 212.81C1017.15 223.731 1014.29 233.611 1008.57 242.451C1003.37 250.772 996.608 258.572 988.287 265.852C980.487 272.613 971.907 279.113 962.546 285.353C953.186 291.593 944.606 297.573 936.805 303.294C929.005 309.014 922.245 314.994 916.525 321.234C911.324 327.475 908.724 334.235 908.724 341.515V416.398C908.724 422.118 910.804 426.798 914.965 430.438C919.645 433.559 924.845 436.159 930.565 438.239C936.285 440.319 942.266 441.879 948.506 442.919C954.746 443.959 959.426 444.479 962.546 444.479C975.027 444.479 987.507 442.399 999.988 438.239C1012.47 433.559 1024.43 427.838 1035.87 421.078C1047.83 414.318 1059.01 407.038 1069.41 399.237C1079.81 390.917 1089.69 383.117 1099.05 375.836C1102.17 373.236 1104.77 370.636 1106.85 368.036C1109.45 364.916 1111.79 362.056 1113.87 359.456C1116.47 356.856 1119.07 354.776 1121.67 353.216C1124.79 351.135 1128.69 349.575 1133.37 348.535C1133.37 349.055 1133.37 350.095 1133.37 351.656C1133.37 353.216 1133.37 354.516 1133.37 355.556C1133.37 359.716 1132.85 363.356 1131.81 366.476C1131.29 369.596 1129.47 372.716 1126.35 375.836C1114.91 388.837 1102.69 401.057 1089.69 412.498C1076.69 423.938 1062.91 434.079 1048.35 442.919C1033.79 451.759 1018.45 458.78 1002.33 463.98C986.207 469.18 969.047 471.78 950.846 471.78C932.645 471.78 918.605 469.18 908.724 463.98C898.844 458.78 891.044 451.239 885.323 441.359C880.123 431.479 876.483 419.778 874.403 406.258C872.323 392.737 869.983 378.177 867.383 362.576L848.662 373.496ZM949.286 252.592C949.286 251.552 948.246 251.812 946.166 253.372C944.606 254.412 942.526 255.972 939.926 258.052C937.845 260.132 936.285 262.212 935.245 264.292C934.205 265.852 934.205 266.632 935.245 266.632C937.845 267.152 940.966 265.592 944.606 261.952C948.246 258.312 949.806 255.192 949.286 252.592ZM1413.4 444.479C1413.4 442.919 1413.4 440.319 1413.4 436.679C1413.4 432.519 1413.14 428.358 1412.62 424.198C1412.62 419.518 1412.62 415.358 1412.62 411.718C1412.62 407.558 1412.62 404.438 1412.62 402.357C1412.62 387.797 1413.66 372.196 1415.74 355.556C1417.82 338.915 1420.94 322.794 1425.1 307.194C1429.26 291.073 1434.72 275.733 1441.48 261.172C1448.76 246.092 1457.6 233.091 1468.01 222.171C1478.93 210.73 1491.41 201.63 1505.45 194.87C1519.49 188.109 1535.61 184.729 1553.81 184.729C1565.77 184.729 1574.87 188.369 1581.11 195.65C1587.35 202.41 1591.51 210.99 1593.59 221.391C1596.19 231.791 1597.49 242.711 1597.49 254.152C1598.01 265.592 1598.27 275.733 1598.27 284.573C1598.27 304.854 1596.19 326.175 1592.03 348.535C1587.87 370.376 1581.11 390.397 1571.75 408.598C1562.39 426.798 1549.39 441.879 1532.75 453.839C1516.63 465.8 1496.35 471.78 1471.91 471.78C1464.63 471.78 1458.39 471.52 1453.18 471C1447.98 470.48 1443.3 469.18 1439.14 467.1C1434.98 464.5 1430.82 461.64 1426.66 458.52C1422.5 454.879 1418.08 450.199 1413.4 444.479ZM1440.7 430.438C1445.38 435.119 1450.84 437.459 1457.08 437.459C1463.33 437.459 1469.31 437.459 1475.03 437.459C1494.79 437.459 1510.91 432.519 1523.39 422.638C1535.87 412.238 1545.49 399.497 1552.25 384.417C1559.53 369.336 1564.47 352.956 1567.07 335.275C1570.19 317.074 1571.75 300.174 1571.75 284.573C1571.75 277.293 1571.75 269.492 1571.75 261.172C1572.27 252.332 1571.49 244.271 1569.41 236.991C1567.85 229.191 1564.73 222.951 1560.05 218.271C1555.37 213.07 1548.35 210.47 1538.99 210.47C1538.99 218.791 1537.95 225.031 1535.87 229.191C1533.79 233.351 1530.93 236.211 1527.29 237.771C1524.17 239.331 1520.27 240.371 1515.59 240.891C1511.43 240.891 1506.75 241.671 1501.55 243.231C1496.87 244.792 1492.19 247.132 1487.51 250.252C1482.83 253.372 1478.67 258.832 1475.03 266.632C1466.71 290.033 1458.65 312.654 1450.84 334.495C1443.56 355.816 1439.92 378.437 1439.92 402.357C1439.92 403.917 1439.92 405.998 1439.92 408.598C1439.92 410.678 1439.92 413.278 1439.92 416.398C1440.44 419.518 1440.7 422.378 1440.7 424.978C1440.7 427.058 1440.7 428.878 1440.7 430.438ZM1681.73 151.188C1671.33 151.188 1664.05 153.268 1659.89 157.428C1655.73 161.588 1652.35 166.009 1649.75 170.689C1647.67 175.369 1645.59 179.789 1643.51 183.949C1641.43 188.109 1637.53 190.189 1631.81 190.189C1625.57 190.189 1620.63 189.149 1616.99 187.069C1612.83 184.469 1610.75 179.789 1610.75 173.029C1611.27 166.269 1613.87 159.768 1618.55 153.528C1623.23 147.288 1628.95 141.828 1635.71 137.147C1642.99 131.947 1650.53 128.047 1658.33 125.447C1666.13 122.847 1673.93 122.067 1681.73 123.107C1689.01 123.107 1695.77 123.627 1702.01 124.667C1708.25 125.707 1713.71 127.787 1718.39 130.907C1723.07 134.027 1726.72 138.448 1729.32 144.168C1731.92 149.368 1733.22 156.388 1733.22 165.229V423.418L1746.48 410.158C1747 409.638 1749.34 405.478 1753.5 397.677C1758.18 389.357 1763.38 379.737 1769.1 368.816C1774.82 357.896 1780.54 346.715 1786.26 335.275C1792.5 323.834 1797.44 314.474 1801.08 307.194C1813.04 283.273 1822.66 260.132 1829.94 237.771C1837.22 214.89 1843.46 190.709 1848.66 165.229C1849.7 161.068 1852.04 158.728 1855.68 158.208C1859.84 157.168 1863.22 156.648 1865.82 156.648C1866.34 156.648 1867.9 156.908 1870.5 157.428C1873.1 157.428 1874.92 157.428 1875.96 157.428C1875.96 161.588 1875.96 167.829 1875.96 176.149C1876.48 184.469 1877 193.83 1877.52 204.23C1878.04 214.63 1878.56 225.551 1879.08 236.991C1879.6 247.912 1880.12 258.572 1880.64 268.972C1881.16 279.373 1881.68 288.733 1882.2 297.053C1882.72 304.854 1882.98 310.834 1882.98 314.994C1882.98 318.114 1883.24 323.834 1883.76 332.155C1884.8 339.955 1886.36 348.275 1888.44 357.116C1891.04 365.436 1894.42 372.976 1898.58 379.737C1902.74 386.497 1908.72 389.877 1916.52 389.877C1923.8 385.717 1931.08 380.777 1938.36 375.056C1945.64 369.336 1952.92 363.616 1960.2 357.896C1968 351.656 1975.54 346.195 1982.82 341.515C1990.62 336.315 1998.69 332.415 2007.01 329.815C2011.17 332.415 2012.73 336.315 2011.69 341.515C2010.65 346.715 2007.79 352.696 2003.11 359.456C1998.43 366.216 1992.45 373.236 1985.16 380.517C1977.88 387.277 1969.82 393.777 1960.98 400.017C1952.14 405.738 1943.04 410.418 1933.68 414.058C1924.84 417.178 1916.52 418.218 1908.72 417.178C1893.64 417.178 1881.94 412.498 1873.62 403.137C1865.82 393.777 1860.1 382.597 1856.46 369.596C1853.34 356.076 1851.52 342.035 1851 327.475C1850.48 312.914 1850.22 300.434 1850.22 290.033C1844.5 290.033 1838.78 294.713 1833.06 304.074C1827.86 312.914 1822.4 324.094 1816.68 337.615C1810.96 351.135 1804.98 365.696 1798.74 381.297C1792.5 396.897 1785.74 411.458 1778.46 424.978C1771.18 437.979 1763.38 449.159 1755.06 458.52C1747.26 467.36 1738.68 471.78 1729.32 471.78C1722.55 471.78 1717.09 469.96 1712.93 466.32C1708.77 462.68 1705.65 458 1703.57 452.279C1701.49 446.559 1700.19 440.579 1699.67 434.339C1699.15 428.098 1698.89 422.118 1698.89 416.398V171.469C1698.89 169.909 1698.37 168.089 1697.33 166.009C1696.29 163.408 1694.99 161.068 1693.43 158.988C1691.87 156.908 1690.05 155.088 1687.97 153.528C1685.89 151.968 1683.81 151.188 1681.73 151.188ZM2003.89 444.479C2009.09 423.678 2012.73 404.958 2014.81 388.317C2017.41 371.156 2018.97 354.516 2019.49 338.395C2020.53 322.274 2020.79 305.374 2020.27 287.693C2020.27 270.012 2020.27 249.992 2020.27 227.631C2011.95 227.631 2005.71 228.151 2001.55 229.191C1997.91 230.231 1995.31 231.531 1993.75 233.091C1992.19 234.131 1991.15 235.431 1990.62 236.991C1990.1 238.551 1989.06 240.111 1987.5 241.671C1986.46 242.711 1984.12 243.751 1980.48 244.792C1976.84 245.832 1971.12 246.352 1963.32 246.352C1958.64 246.352 1955.26 244.531 1953.18 240.891C1951.1 237.251 1950.06 233.091 1950.06 228.411C1950.06 224.251 1952.92 219.831 1958.64 215.15C1963.84 210.47 1970.08 205.79 1977.36 201.11C1985.16 196.43 1992.97 192.53 2000.77 189.409C2009.09 186.289 2016.11 184.729 2021.83 184.729C2023.91 184.729 2026.77 185.769 2030.41 187.849C2034.57 189.409 2038.47 191.75 2042.11 194.87C2045.75 197.47 2048.61 200.33 2050.69 203.45C2053.29 206.57 2054.59 209.69 2054.59 212.81V321.234C2059.79 313.434 2068.11 302.774 2079.55 289.253C2090.99 275.733 2103.73 262.472 2117.77 249.472C2131.81 235.951 2146.11 224.251 2160.67 214.37C2175.23 204.49 2188.23 199.55 2199.67 199.55C2215.27 199.55 2226.19 204.75 2232.43 215.15C2238.67 225.031 2241.79 237.511 2241.79 252.592C2235.55 252.592 2230.61 251.552 2226.97 249.472C2223.33 247.392 2219.95 245.052 2216.83 242.451C2214.23 239.851 2211.37 237.771 2208.25 236.211C2205.13 234.131 2200.97 233.091 2195.77 233.091C2179.13 236.211 2163.53 244.531 2148.97 258.052C2134.41 271.573 2120.89 287.433 2108.41 305.634C2096.45 323.834 2085.53 343.075 2075.65 363.356C2066.29 383.637 2057.97 402.097 2050.69 418.738C2043.41 435.379 2037.43 448.899 2032.75 459.3C2028.59 469.7 2025.99 473.86 2024.95 471.78C2019.75 471.78 2014.81 469.44 2010.13 464.76C2005.97 459.56 2003.89 453.579 2003.89 446.819V444.479Z" fill="black"/>
<path d="M2544.45 651.187C2553.81 622.586 2561.61 597.625 2567.85 576.304C2574.09 555.503 2579.03 536.002 2582.67 517.802C2586.31 500.121 2589.43 482.7 2592.03 465.54C2594.63 448.379 2597.23 429.398 2599.83 408.598C2602.95 387.277 2606.59 363.096 2610.75 336.055C2614.91 309.014 2620.63 276.773 2627.91 239.331C2627.91 227.891 2627.13 218.791 2625.57 212.03C2624.53 205.27 2621.93 201.11 2617.77 199.55C2614.13 197.47 2608.67 197.73 2601.39 200.33C2594.63 202.41 2585.79 206.57 2574.87 212.81H2570.97C2566.81 212.81 2562.91 212.03 2559.27 210.47C2555.63 208.39 2553.81 204.75 2553.81 199.55C2553.81 195.91 2554.07 193.31 2554.59 191.75C2555.11 190.189 2557.19 188.109 2560.83 185.509C2568.63 180.309 2577.99 174.329 2588.91 167.569C2599.83 160.808 2610.23 156.388 2620.11 154.308C2630.51 151.708 2639.35 153.008 2646.63 158.208C2654.43 163.408 2659.37 174.589 2661.45 191.75C2667.17 184.989 2673.15 177.969 2679.39 170.689C2686.15 162.888 2693.17 156.128 2700.45 150.408C2707.73 144.168 2715.53 139.228 2723.85 135.587C2732.69 131.947 2742.31 130.127 2752.71 130.127C2768.83 130.127 2782.09 135.327 2792.5 145.728C2802.9 156.128 2810.96 168.869 2816.68 183.949C2822.4 199.03 2826.04 215.15 2827.6 232.311C2829.68 248.952 2830.72 263.512 2830.72 275.993C2830.72 306.154 2825.52 333.195 2815.12 357.116C2804.72 380.517 2790.42 400.537 2772.21 417.178C2754.53 433.819 2733.21 446.819 2708.25 456.179C2683.29 465.02 2656.25 469.96 2627.13 471C2622.97 484.521 2620.11 494.401 2618.55 500.641C2617.51 506.881 2616.73 512.082 2616.21 516.242C2615.69 520.922 2615.17 525.862 2614.65 531.062C2614.13 536.262 2612.31 544.063 2609.19 554.463C2606.59 565.384 2602.17 580.464 2595.93 599.705C2589.69 618.946 2580.85 644.687 2569.41 676.928C2563.17 676.928 2557.45 674.068 2552.25 668.347C2547.05 662.627 2544.45 656.907 2544.45 651.187ZM2633.37 430.438C2632.85 433.559 2633.37 436.159 2634.93 438.239C2636.49 439.799 2638.31 441.099 2640.39 442.139C2642.47 443.179 2644.81 443.959 2647.41 444.479C2650.01 444.479 2652.09 444.479 2653.65 444.479C2667.17 444.479 2681.47 441.359 2696.55 435.119C2712.15 428.878 2726.45 420.818 2739.45 410.938C2752.97 401.057 2764.41 389.617 2773.77 376.616C2783.13 363.616 2788.59 349.835 2790.16 335.275C2797.96 316.034 2802.12 296.793 2802.64 277.553C2803.68 257.792 2802.12 239.851 2797.96 223.731C2794.32 207.61 2788.59 194.09 2780.79 183.169C2772.99 172.249 2763.63 165.749 2752.71 163.668C2742.31 161.588 2730.87 164.708 2718.39 173.029C2706.43 181.349 2694.21 196.95 2681.73 219.831L2633.37 430.438ZM2837.74 413.278C2837.74 410.158 2841.12 407.558 2847.88 405.478C2854.64 403.397 2862.18 400.797 2870.5 397.677C2879.34 394.557 2887.92 390.917 2896.24 386.757C2905.08 382.077 2911.06 376.356 2914.18 369.596C2913.14 344.635 2913.4 320.974 2914.96 298.614C2916.52 276.253 2919.12 254.152 2922.76 232.311C2926.4 210.47 2930.82 188.629 2936.02 166.789C2941.74 144.428 2947.98 121.027 2954.74 96.5859C2953.7 91.3857 2954.74 83.3254 2957.86 72.405C2961.5 61.4846 2966.18 50.8242 2971.9 40.4238C2977.62 30.0234 2983.86 20.9231 2990.62 13.1228C2997.9 4.80249 3004.4 0.642334 3010.12 0.642334C3016.36 0.642334 3020.78 4.02246 3023.38 10.7827C3026.5 17.543 3028.58 25.3433 3029.62 34.1836C3030.66 43.0239 3030.92 52.1243 3030.4 61.4846C3029.88 70.325 3029.62 77.0852 3029.62 81.7654C3029.62 108.286 3028.06 134.027 3024.94 158.988C3021.82 183.429 3016.88 207.35 3010.12 230.751C3003.88 254.152 2996.08 277.293 2986.72 300.174C2977.36 323.054 2966.7 346.195 2954.74 369.596C2954.74 369.596 2954.48 370.376 2953.96 371.936C2953.96 373.496 2953.96 374.796 2953.96 375.836C2954.48 394.557 2959.94 407.818 2970.34 415.618C2980.74 422.898 2992.96 427.058 3007 428.098C3021.56 428.618 3036.38 426.798 3051.46 422.638C3067.07 418.478 3079.81 414.318 3089.69 410.158L3096.71 416.398C3094.11 421.078 3090.21 426.018 3085.01 431.219C3080.33 435.899 3075.13 440.319 3069.41 444.479C3063.69 448.119 3057.97 451.239 3052.24 453.839C3047.04 455.919 3042.88 456.959 3039.76 456.959C3026.24 456.959 3014.54 456.439 3004.66 455.399C2994.78 454.359 2985.68 452.279 2977.36 449.159C2969.04 446.039 2960.98 441.359 2953.18 435.119C2945.38 428.878 2936.8 420.558 2927.44 410.158H2921.2C2916.52 414.318 2912.1 417.698 2907.94 420.298C2904.3 422.378 2899.88 423.938 2894.68 424.978C2889.48 426.018 2883.5 426.798 2876.74 427.318C2870.5 427.318 2863.22 427.318 2854.9 427.318C2849.18 427.318 2845.02 426.538 2842.42 424.978C2839.3 422.898 2837.74 418.998 2837.74 413.278ZM3002.32 70.0649C2991.92 84.1055 2983.08 99.9661 2975.8 117.647C2969.04 135.327 2963.58 153.528 2959.42 172.249C2955.26 190.969 2952.14 209.95 2950.06 229.191C2947.98 248.432 2946.94 266.892 2946.94 284.573C2946.94 285.613 2946.94 287.953 2946.94 291.593C2947.46 295.233 2947.72 299.134 2947.72 303.294C2947.72 306.934 2947.72 310.574 2947.72 314.214C2948.24 317.854 2948.5 320.194 2948.5 321.234C2949.02 320.714 2950.06 319.674 2951.62 318.114C2953.18 316.554 2954.22 315.514 2954.74 314.994V307.194C2962.54 290.033 2969.3 273.393 2975.02 257.272C2981.26 241.151 2986.46 225.031 2990.62 208.91C2994.78 192.27 2997.9 175.369 2999.98 158.208C3002.06 141.048 3003.1 122.587 3003.1 102.826C3003.1 101.786 3003.1 99.7061 3003.1 96.5859C3003.1 92.9458 3003.1 89.5657 3003.1 86.4456C3003.1 82.8054 3002.84 79.4253 3002.32 76.3052C3002.32 73.1851 3002.32 71.105 3002.32 70.0649ZM3257.39 375.836C3249.59 385.197 3240.49 395.077 3230.09 405.478C3220.21 415.878 3209.29 425.498 3197.33 434.339C3185.89 443.179 3173.67 450.719 3160.67 456.959C3148.19 462.68 3135.19 465.54 3121.67 465.54C3094.11 465.54 3080.33 452.279 3080.33 425.758C3080.33 414.838 3084.75 400.537 3093.59 382.857C3102.95 364.656 3114.91 345.675 3129.47 325.915C3144.03 306.154 3160.15 287.173 3177.83 268.972C3195.51 250.252 3213.19 234.911 3230.87 222.951C3248.55 210.47 3264.67 202.67 3279.23 199.55C3294.31 196.43 3306.53 200.85 3315.89 212.81C3315.89 226.851 3314.85 240.891 3312.77 254.932C3310.69 268.972 3308.61 283.013 3306.53 297.053C3304.45 310.574 3302.37 324.094 3300.29 337.615C3298.21 351.135 3297.17 364.916 3297.17 378.957C3297.17 382.077 3297.43 387.017 3297.95 393.777C3298.99 400.017 3300.29 406.518 3301.85 413.278C3303.93 419.518 3306.53 425.238 3309.65 430.438C3312.77 435.119 3316.93 437.459 3322.14 437.459C3334.62 437.459 3344.76 435.899 3352.56 432.779C3360.88 429.658 3367.9 426.018 3373.62 421.858C3379.86 417.178 3385.06 411.978 3389.22 406.258C3393.9 400.537 3398.58 394.817 3403.26 389.097C3408.46 383.377 3414.18 377.917 3420.42 372.716C3426.66 367.516 3434.72 363.356 3444.6 360.236C3444.6 360.236 3444.6 361.016 3444.6 362.576C3444.6 364.136 3444.6 365.436 3444.6 366.476C3444.6 379.477 3440.7 392.477 3432.9 405.478C3425.1 417.958 3415.22 429.138 3403.26 439.019C3391.3 448.899 3377.78 456.959 3362.7 463.2C3348.14 468.92 3333.84 471.78 3319.79 471.78C3307.83 471.78 3298.21 468.4 3290.93 461.64C3283.65 454.879 3277.67 446.819 3272.99 437.459C3268.83 428.098 3265.71 417.958 3263.63 407.038C3261.55 395.597 3259.47 385.197 3257.39 375.836ZM3271.43 273.653C3276.63 256.492 3278.45 244.792 3276.89 238.551C3275.85 232.311 3272.21 229.971 3265.97 231.531C3259.73 232.571 3251.67 236.991 3241.79 244.792C3231.91 252.072 3221.25 261.172 3209.81 272.093C3198.37 282.493 3186.93 294.193 3175.49 307.194C3164.05 320.194 3153.39 332.675 3143.51 344.635C3133.63 356.076 3125.57 366.476 3119.33 375.836C3113.09 385.197 3109.19 391.957 3107.63 396.117C3104.51 408.078 3103.99 417.178 3106.07 423.418C3108.67 429.658 3112.31 434.079 3116.99 436.679C3122.19 438.759 3127.65 439.019 3133.37 437.459C3139.61 435.899 3144.81 433.559 3148.97 430.438C3157.81 422.638 3168.99 412.238 3182.51 399.237C3196.03 385.717 3209.03 371.416 3221.51 356.336C3234.51 341.255 3245.69 326.435 3255.05 311.874C3264.41 296.793 3269.87 284.053 3271.43 273.653ZM3485.16 416.398C3486.2 412.238 3487.76 405.478 3489.84 396.117C3491.92 386.237 3494 375.316 3496.08 363.356C3498.68 351.396 3501.02 338.655 3503.1 325.135C3505.7 311.614 3508.04 298.874 3510.12 286.913C3512.72 274.953 3514.8 264.032 3516.36 254.152C3517.92 244.271 3518.96 236.991 3519.48 232.311C3520 230.231 3520 227.111 3519.48 222.951C3518.96 218.791 3518.44 214.11 3517.92 208.91C3517.4 203.71 3516.88 199.03 3516.36 194.87C3515.84 190.709 3515.58 187.589 3515.58 185.509C3514.02 185.509 3511.42 184.989 3507.78 183.949C3504.14 182.909 3500.24 182.129 3496.08 181.609C3492.44 180.569 3489.06 179.789 3485.94 179.269C3482.82 178.229 3480.48 177.709 3478.92 177.709C3466.44 182.389 3457.08 188.369 3450.84 195.65C3445.12 202.41 3439.66 209.17 3434.46 215.93C3429.78 222.691 3424.06 228.671 3417.3 233.871C3410.54 238.551 3400.66 240.891 3387.66 240.891C3382.98 240.891 3379.6 239.071 3377.52 235.431C3375.44 231.791 3374.4 227.631 3374.4 222.951V219.831C3385.84 206.83 3396.76 195.65 3407.16 186.289C3417.04 176.929 3427.7 169.129 3439.14 162.888C3450.58 156.128 3463.06 151.188 3476.58 148.068C3490.1 144.948 3505.7 143.388 3523.38 143.388C3531.18 143.388 3536.9 144.948 3540.54 148.068C3544.7 150.668 3547.82 154.308 3549.9 158.988C3551.98 163.148 3553.02 168.089 3553.02 173.809C3553.54 179.529 3553.8 185.769 3553.8 192.53C3553.8 206.57 3552.24 220.611 3549.12 234.651C3546.52 248.172 3543.4 261.952 3539.76 275.993C3536.64 289.513 3533.52 303.294 3530.4 317.334C3527.28 330.855 3525.72 344.895 3525.72 359.456V362.576C3527.28 358.416 3530.66 351.656 3535.86 342.295C3541.06 332.415 3546.52 322.014 3552.24 311.094C3557.96 300.174 3563.42 290.033 3568.62 280.673C3574.34 270.792 3578.24 264.032 3580.32 260.392C3580.84 259.872 3582.66 257.792 3585.78 254.152C3588.91 249.992 3592.55 245.312 3596.71 240.111C3601.39 234.911 3605.81 229.971 3609.97 225.291C3614.65 220.091 3618.55 215.93 3621.67 212.81C3624.79 208.65 3628.43 204.23 3632.59 199.55C3637.27 194.87 3641.95 190.449 3646.63 186.289C3651.83 182.129 3657.03 178.749 3662.23 176.149C3667.95 173.029 3673.67 171.469 3679.39 171.469C3684.07 171.469 3687.45 173.289 3689.53 176.929C3692.13 180.569 3693.95 184.989 3694.99 190.189C3696.03 195.39 3696.55 200.85 3696.55 206.57C3696.55 211.77 3696.55 216.19 3696.55 219.831C3696.55 235.431 3694.73 251.032 3691.09 266.632C3687.45 282.233 3683.55 297.833 3679.39 313.434C3675.23 328.515 3671.07 343.855 3666.91 359.456C3663.27 375.056 3661.45 390.657 3661.45 406.258C3661.45 413.018 3662.49 418.738 3664.57 423.418C3666.65 428.098 3671.33 430.438 3678.61 430.438C3687.97 430.438 3696.55 427.838 3704.35 422.638C3712.15 417.438 3719.43 411.978 3726.19 406.258C3733.47 400.017 3740.49 394.297 3747.25 389.097C3754.53 383.897 3762.59 381.297 3771.43 381.297V396.117C3771.43 396.637 3770.13 398.197 3767.53 400.797C3764.93 403.397 3761.81 406.518 3758.17 410.158C3754.53 413.798 3750.63 417.438 3746.47 421.078C3742.83 424.718 3739.71 427.838 3737.11 430.438C3732.95 434.079 3728.27 437.979 3723.07 442.139C3717.87 446.299 3712.41 450.199 3706.69 453.839C3701.49 456.959 3695.77 459.82 3689.53 462.42C3683.29 464.5 3677.31 465.54 3671.59 465.54C3663.79 465.54 3657.29 463.46 3652.09 459.3C3647.41 454.619 3643.77 449.159 3641.17 442.919C3638.57 436.159 3636.75 429.138 3635.71 421.858C3634.67 414.578 3634.15 408.078 3634.15 402.357C3634.15 386.757 3635.45 371.416 3638.05 356.336C3641.17 340.735 3644.29 325.655 3647.41 311.094C3650.53 296.013 3653.39 280.933 3655.99 265.852C3658.59 250.772 3659.89 235.431 3659.89 219.831H3655.21C3654.69 219.831 3652.87 221.391 3649.75 224.511C3646.63 227.631 3642.73 231.271 3638.05 235.431C3633.89 239.591 3629.73 244.011 3625.57 248.692C3621.41 253.372 3617.77 257.272 3614.65 260.392C3612.05 263.512 3609.19 267.412 3606.07 272.093C3602.95 276.253 3599.83 280.933 3596.71 286.133C3593.59 291.333 3590.47 296.533 3587.34 301.734C3584.74 306.414 3582.4 310.834 3580.32 314.994C3578.76 318.634 3576.16 324.094 3572.52 331.375C3568.88 338.655 3564.72 346.975 3560.04 356.336C3555.88 365.696 3551.2 375.576 3546 385.977C3541.32 396.377 3536.64 406.258 3531.96 415.618C3527.8 424.978 3523.9 433.299 3520.26 440.579C3516.62 447.859 3514.02 453.319 3512.46 456.959C3511.94 459.04 3509.86 461.9 3506.22 465.54C3502.58 468.66 3500.24 470.48 3499.2 471C3498.16 471.52 3497.64 471.78 3497.64 471.78H3495.3H3493.74C3493.22 471.78 3492.7 471.52 3492.18 471C3491.14 470.48 3489.58 469.44 3487.5 467.88C3485.94 466.32 3485.16 465.28 3485.16 464.76V416.398ZM3755.83 373.496C3752.19 375.576 3749.33 376.096 3747.25 375.056C3745.17 374.016 3743.61 372.456 3742.57 370.376C3742.05 368.296 3741.53 365.956 3741.01 363.356C3741.01 360.236 3741.01 358.156 3741.01 357.116C3741.01 346.715 3742.31 340.475 3744.91 338.395C3747.51 335.795 3750.89 334.235 3755.05 333.715C3759.21 332.675 3763.63 331.375 3768.31 329.815C3772.99 328.255 3777.41 323.314 3781.57 314.994C3787.81 301.994 3793.27 288.473 3797.95 274.433C3803.15 259.872 3809.39 246.352 3816.67 233.871C3823.95 221.391 3833.05 211.25 3843.97 203.45C3855.42 195.65 3871.02 191.75 3890.78 191.75C3893.9 191.75 3897.28 192.01 3900.92 192.53C3905.08 193.05 3908.72 194.09 3911.84 195.65C3915.48 196.69 3918.34 198.77 3920.42 201.89C3923.02 204.49 3924.32 208.13 3924.32 212.81C3924.32 223.731 3921.46 233.611 3915.74 242.451C3910.54 250.772 3903.78 258.572 3895.46 265.852C3887.66 272.613 3879.08 279.113 3869.72 285.353C3860.36 291.593 3851.78 297.573 3843.97 303.294C3836.17 309.014 3829.41 314.994 3823.69 321.234C3818.49 327.475 3815.89 334.235 3815.89 341.515V416.398C3815.89 422.118 3817.97 426.798 3822.13 430.438C3826.81 433.559 3832.01 436.159 3837.73 438.239C3843.45 440.319 3849.44 441.879 3855.68 442.919C3861.92 443.959 3866.6 444.479 3869.72 444.479C3882.2 444.479 3894.68 442.399 3907.16 438.239C3919.64 433.559 3931.6 427.838 3943.04 421.078C3955 414.318 3966.18 407.038 3976.58 399.237C3986.98 390.917 3996.86 383.117 4006.22 375.836C4009.34 373.236 4011.94 370.636 4014.02 368.036C4016.62 364.916 4018.96 362.056 4021.04 359.456C4023.64 356.856 4026.24 354.776 4028.84 353.216C4031.96 351.135 4035.86 349.575 4040.54 348.535C4040.54 349.055 4040.54 350.095 4040.54 351.656C4040.54 353.216 4040.54 354.516 4040.54 355.556C4040.54 359.716 4040.02 363.356 4038.98 366.476C4038.46 369.596 4036.64 372.716 4033.52 375.836C4022.08 388.837 4009.86 401.057 3996.86 412.498C3983.86 423.938 3970.08 434.079 3955.52 442.919C3940.96 451.759 3925.62 458.78 3909.5 463.98C3893.38 469.18 3876.22 471.78 3858.02 471.78C3839.81 471.78 3825.77 469.18 3815.89 463.98C3806.01 458.78 3798.21 451.239 3792.49 441.359C3787.29 431.479 3783.65 419.778 3781.57 406.258C3779.49 392.737 3777.15 378.177 3774.55 362.576L3755.83 373.496ZM3856.46 252.592C3856.46 251.552 3855.42 251.812 3853.34 253.372C3851.78 254.412 3849.7 255.972 3847.09 258.052C3845.01 260.132 3843.45 262.212 3842.41 264.292C3841.37 265.852 3841.37 266.632 3842.41 266.632C3845.01 267.152 3848.14 265.592 3851.78 261.952C3855.42 258.312 3856.98 255.192 3856.46 252.592ZM4109.96 444.479C4109.96 442.919 4109.96 440.319 4109.96 436.679C4109.96 432.519 4109.7 428.358 4109.18 424.198C4109.18 419.518 4109.18 415.358 4109.18 411.718C4109.18 407.558 4109.18 404.438 4109.18 402.357C4109.18 387.277 4110.48 372.716 4113.08 358.676C4115.68 344.115 4118.54 329.815 4121.66 315.774C4125.3 301.214 4128.43 286.653 4131.03 272.093C4133.63 257.532 4134.93 242.711 4134.93 227.631C4128.69 227.631 4121.14 230.491 4112.3 236.211C4103.98 241.931 4095.14 248.432 4085.78 255.712C4076.42 262.992 4067.58 270.532 4059.26 278.333C4051.46 285.613 4045.48 291.073 4041.32 294.713C4041.32 294.713 4040.54 294.713 4038.98 294.713C4037.42 294.713 4036.12 294.713 4035.08 294.713C4025.2 294.713 4020.26 290.033 4020.26 280.673C4020.26 274.433 4023.38 267.932 4029.62 261.172C4036.38 253.892 4044.44 246.872 4053.8 240.111C4063.68 232.831 4074.08 226.071 4085 219.831C4096.44 213.59 4106.84 207.87 4116.2 202.67C4126.08 196.95 4134.15 192.01 4140.39 187.849C4147.15 183.689 4150.53 180.309 4150.53 177.709C4155.21 155.868 4157.29 137.667 4156.77 123.107C4156.25 108.546 4154.17 96.8459 4150.53 88.0056C4147.41 79.1653 4142.73 73.1851 4136.49 70.0649C4130.77 66.4248 4124.52 64.8647 4117.76 65.3848C4111.52 65.9048 4105.02 68.2449 4098.26 72.405C4091.5 76.5652 4085.78 81.7654 4081.1 88.0056C4077.46 83.8455 4075.12 80.4653 4074.08 77.8652C4073.04 74.7451 4072.52 71.365 4072.52 67.7249C4084.48 55.7644 4096.18 48.2241 4107.62 45.104C4119.58 41.9839 4130.77 42.2439 4141.17 45.884C4151.57 49.0042 4160.93 54.7244 4169.25 63.0447C4177.57 71.365 4183.81 81.2454 4187.97 92.6858C4192.65 103.606 4194.73 115.567 4194.21 128.567C4194.21 141.048 4191.09 153.268 4184.85 165.229C4185.89 164.708 4187.97 163.668 4191.09 162.108C4194.21 160.548 4197.59 159.248 4201.23 158.208C4204.87 156.648 4208.25 155.348 4211.37 154.308C4215.01 152.748 4217.61 151.708 4219.17 151.188H4221.51H4225.41C4225.93 151.188 4226.45 153.008 4226.97 156.648C4228.01 159.768 4229.05 163.668 4230.09 168.349C4231.65 172.509 4232.95 176.409 4233.99 180.049C4235.03 183.169 4235.55 184.989 4235.55 185.509L4177.83 212.81C4177.31 213.33 4175.49 219.051 4172.37 229.971C4169.77 240.371 4166.65 252.852 4163.01 267.412C4159.37 281.453 4155.73 296.273 4152.09 311.874C4148.45 326.955 4145.85 339.175 4144.29 348.535C4143.25 350.615 4142.21 354.776 4141.17 361.016C4140.65 366.736 4140.13 372.976 4139.61 379.737C4139.09 385.977 4138.57 392.217 4138.05 398.457C4137.53 404.177 4137.27 408.078 4137.27 410.158C4137.27 413.278 4137.53 416.918 4138.05 421.078C4138.57 425.238 4139.35 429.138 4140.39 432.779C4141.95 435.899 4144.03 438.759 4146.63 441.359C4149.23 443.439 4152.61 444.479 4156.77 444.479C4171.85 444.479 4185.11 441.619 4196.55 435.899C4208.51 429.658 4218.91 422.898 4227.75 415.618C4236.59 408.338 4244.39 401.577 4251.15 395.337C4258.43 389.097 4264.93 385.977 4270.65 385.977C4271.69 385.977 4272.99 386.237 4274.55 386.757C4276.63 386.757 4277.67 387.017 4277.67 387.537C4276.11 402.617 4271.69 415.618 4264.41 426.538C4257.65 436.939 4249.07 445.519 4238.67 452.279C4228.79 459.04 4217.09 463.98 4203.57 467.1C4190.05 470.22 4175.49 471.78 4159.89 471.78C4155.21 471.78 4150.01 471.52 4144.29 471C4138.57 470.48 4133.37 469.18 4128.69 467.1C4124 465.02 4119.84 462.16 4116.2 458.52C4113.08 454.879 4111 450.199 4109.96 444.479Z" fill="#346428"/>
</svg>
